<svg width="175" height="60" fill="none" xmlns="http://www.w3.org/2000/svg"><path d="M94.465 49.838a79.47 79.47 0 01-5.716-5.44 87.854 87.854 0 01-5.027-6.06 87.788 87.788 0 01-4.2-6.267 58.19 58.19 0 01-3.168-6.335 525.47 525.47 0 00-4.683 5.165 51.267 51.267 0 00-4.063 5.165c-1.193 1.698-2.157 3.42-2.892 5.164-.78 1.699-1.17 3.398-1.17 5.096 0 2.02.344 3.765 1.032 5.234.643 1.423 1.515 2.594 2.617 3.512a10.355 10.355 0 003.788 1.997 15.73 15.73 0 004.407.62c3.03 0 6.243-.712 9.64-2.135a37.54 37.54 0 009.435-5.716zm-8.54-40.836c0-1.607-.366-2.754-1.1-3.443-.69-.734-1.447-1.102-2.273-1.102-.69 0-1.424.23-2.204.689-.735.46-1.423 1.125-2.066 1.997-.597.826-1.102 1.836-1.515 3.03-.413 1.194-.62 2.502-.62 3.925 0 2.617.482 5.394 1.446 8.333a108.352 108.352 0 003.237-3.512 32.054 32.054 0 002.617-3.375c.78-1.147 1.377-2.25 1.79-3.305.46-1.102.689-2.18.689-3.237zm26.513 50.27c0 .138-.092.276-.275.414-.184.137-.459.206-.827.206-2.754-.872-5.463-2.089-8.125-3.65a62.334 62.334 0 01-7.782-5.577 53.557 53.557 0 01-5.44 3.65 42.025 42.025 0 01-5.785 2.823 34.316 34.316 0 01-5.853 1.79c-1.928.413-3.788.62-5.578.62-1.745 0-3.397-.253-4.958-.758-1.561-.459-2.915-1.17-4.063-2.134-1.148-1.01-2.043-2.25-2.686-3.719-.688-1.469-1.033-3.19-1.033-5.165 0-2.111.482-4.177 1.446-6.197.965-2.066 2.204-4.086 3.719-6.06a64.713 64.713 0 015.027-5.785l5.51-5.509c-1.332-3.58-1.998-6.817-1.998-9.71 0-1.698.299-3.26.895-4.682.643-1.424 1.446-2.64 2.41-3.65.965-1.01 2.02-1.79 3.168-2.341 1.194-.597 2.319-.896 3.375-.896 1.24 0 2.364.414 3.374 1.24 1.01.78 1.515 2.089 1.515 3.925 0 1.148-.299 2.341-.895 3.581-.551 1.24-1.309 2.525-2.273 3.856-.918 1.286-2.02 2.64-3.305 4.063-1.24 1.378-2.548 2.8-3.925 4.27 1.515 4.178 3.764 8.424 6.748 12.74 3.03 4.269 6.703 8.263 11.018 11.982 2.341-2.112 4.224-4.43 5.647-6.955 1.423-2.526 2.135-5.165 2.135-7.92 0-.918-.138-1.836-.413-2.754-.23-.964-.712-1.974-1.447-3.03 0-.092.138-.184.414-.276.275-.138.528-.206.757-.206.643 0 1.148.23 1.515.688.413.413.712.918.895 1.515.23.597.368 1.217.413 1.86.092.596.138 1.078.138 1.446 0 3.03-.849 5.968-2.548 8.814-1.652 2.8-3.81 5.372-6.473 7.713 4.453 3.81 9.48 6.91 15.081 9.296.322.184.482.345.482.483z" fill="#FFA55C"/><path d="M13.909 34.876c0-1.434-.093-2.626-.278-3.574-.162-.948-.393-1.423-.694-1.423-.185 0-.359.139-.52.417-.162.254-.301.624-.417 1.11a18.936 18.936 0 00-.243 1.666c-.046.624-.07 1.306-.07 2.047 0 1.318.093 2.741.278 4.268.185 1.503.51 2.96.972 4.372a41.38 41.38 0 00.729-4.546 42.61 42.61 0 00.242-4.337zm14.538-15.753a.33.33 0 01-.139.277c-.092.07-.208.15-.346.243a4.891 4.891 0 00-1.7 1.735c-.44.74-.799 1.55-1.076 2.429a15.12 15.12 0 00-.52 2.707 24.62 24.62 0 00-.14 2.498c0 .532.023 1.191.07 1.978.07.763.139 1.607.208 2.533.092.925.162 1.908.208 2.949a45.91 45.91 0 01.104 3.123c0 1.504-.092 2.96-.277 4.372-.162 1.411-.498 2.672-1.007 3.782-.485 1.11-1.168 2.001-2.047 2.672-.879.67-2.024 1.006-3.435 1.006-.648 0-1.26-.127-1.84-.381a5.45 5.45 0 01-1.56-1.007 9.334 9.334 0 01-1.284-1.526 13.464 13.464 0 01-1.007-1.909c-.3.81-.659 1.562-1.075 2.255a9.077 9.077 0 01-1.319 1.805 5.491 5.491 0 01-1.596 1.18 4.196 4.196 0 01-1.84.416c-.994 0-1.838-.254-2.532-.763-.671-.51-1.226-1.18-1.666-2.013-.44-.81-.786-1.735-1.04-2.776a30.24 30.24 0 01-.521-3.227 54.545 54.545 0 01-.243-3.227 417.479 417.479 0 00-.07-2.81 40.17 40.17 0 01.07-4.13c.116-1.318.243-2.498.382-3.539a55.16 55.16 0 01.416-2.741c.139-.763.231-1.33.278-1.7.023-.14.162-.232.416-.278.278-.046.52-.07.729-.07.162 0 .3.024.416.07.116.023.174.093.174.208 0 .14-.058.382-.174.729-.116.324-.29.948-.52 1.874a27.084 27.084 0 00-.313 1.804 102.8 102.8 0 00-.277 2.602c-.07.972-.127 2.013-.174 3.123a75.113 75.113 0 00-.07 3.193c0 .81.036 1.7.105 2.672.07.948.185 1.896.347 2.845.162.925.382 1.827.66 2.706.277.88.612 1.654 1.005 2.325.417.671.903 1.203 1.458 1.596.555.417 1.203.625 1.943.625a2.92 2.92 0 001.527-.416c.462-.278.89-.671 1.284-1.18a7.839 7.839 0 001.04-1.735c.324-.671.614-1.4.868-2.186a24.433 24.433 0 01-1.18-4.65c-.254-1.642-.381-3.158-.381-4.546 0-1.017.034-2.024.104-3.018.092-.995.22-1.886.381-2.672.162-.787.37-1.423.625-1.908.254-.486.555-.73.902-.73.278 0 .52.174.729.521.231.347.416.822.555 1.423.162.601.278 1.319.347 2.151.092.81.139 1.689.139 2.637 0 1.527-.104 3.135-.313 4.824a34.547 34.547 0 01-.971 4.892c.3.81.648 1.562 1.04 2.255a9.52 9.52 0 001.32 1.77 5.775 5.775 0 001.665 1.18c.624.3 1.307.451 2.047.451 1.018 0 1.85-.255 2.498-.763.648-.486 1.157-1.157 1.527-2.013.37-.879.625-1.885.764-3.019.138-1.156.208-2.394.208-3.712 0-1.18-.046-2.395-.139-3.644-.07-1.25-.15-2.487-.243-3.713a612.893 612.893 0 00-.277-3.608 55.835 55.835 0 01-.104-3.262c0-.717.104-1.55.312-2.498.231-.949.532-1.84.902-2.672.393-.856.833-1.573 1.319-2.151.508-.602 1.04-.903 1.596-.903.162 0 .323.081.485.243.162.139.243.278.243.417zm10.835 23.04c0-.347-.058-.625-.174-.833a.58.58 0 00-.555-.347c-.393 0-.694.197-.902.59-.208.37-.3.844-.278 1.422.07 1.226.29 2.256.66 3.089a6 6 0 00.902-1.805 6.45 6.45 0 00.347-2.116zm9.368-.035a43.97 43.97 0 01-.52 1.076c-.185.347-.393.694-.625 1.04-1.18 1.759-2.37 3.066-3.574 3.922-1.203.856-2.324 1.283-3.365 1.283-1.319 0-2.325-.624-3.02-1.873a8.29 8.29 0 01-2.74 1.839c-.995.416-1.978.624-2.95.624a5.69 5.69 0 01-1.665-.243 3.658 3.658 0 01-1.319-.728 3.762 3.762 0 01-.937-1.284c-.231-.532-.347-1.145-.347-1.84 0-.832.197-1.676.59-2.532.37-.88.89-1.666 1.562-2.36a8.869 8.869 0 012.429-1.77 6.656 6.656 0 013.018-.693c.88 0 1.562.127 2.047.381.486.232.73.451.73.66 0 .092-.047.162-.14.208a.559.559 0 01-.242.07c-.024-.024-.047-.035-.07-.035h-.035a3.056 3.056 0 00-.936-.59c-.347-.162-.856-.243-1.527-.243-.902 0-1.724.196-2.464.59-.717.37-1.33.867-1.839 1.492a6.773 6.773 0 00-1.18 2.012 6.198 6.198 0 00-.416 2.186c0 1.388.324 2.395.972 3.019.647.625 1.457.937 2.429.937.786 0 1.607-.197 2.463-.59a7.277 7.277 0 002.29-1.666c-.37-.832-.555-1.92-.555-3.261 0-.88.162-1.643.486-2.29.324-.648.786-.972 1.388-.972.832 0 1.249.486 1.249 1.458 0 .971-.139 1.85-.417 2.637a8.163 8.163 0 01-1.11 2.081c.648 1.203 1.55 1.805 2.707 1.805.879 0 1.816-.37 2.81-1.11 1.018-.74 2.013-1.816 2.984-3.227.232-.347.44-.706.625-1.076l.555-1.11.66.173zm4.82-15.51c0-1.319-.22-2.371-.66-3.158-.416-.81-1.121-1.215-2.116-1.215-.347 0-.67.116-.971.348-.278.208-.52.497-.73.867-.207.37-.37.798-.485 1.284a6.726 6.726 0 00-.173 1.561c0 1.527.011 2.915.034 4.164.023 1.25.047 2.429.07 3.54.046 1.11.092 2.185.139 3.226.046 1.041.092 2.105.138 3.193a20.622 20.622 0 001.874-3.088 30.403 30.403 0 001.492-3.61 25.19 25.19 0 001.006-3.712c.255-1.226.382-2.36.382-3.4zm12.561 15.51c-.162.347-.335.706-.52 1.076-.162.37-.37.717-.625 1.04-1.272 1.805-2.718 3.228-4.337 4.269-1.62 1.017-3.227 1.526-4.824 1.526a6.153 6.153 0 01-2.845-.694c-.902-.44-1.7-1.156-2.394-2.151-.093-.116-.139-.22-.139-.312 0-.209.139-.313.416-.313.024 0 .105.023.243.07.185 0 .394.07.625.208.255.116.613.173 1.076.173.717 0 1.388-.127 2.012-.381a5.454 5.454 0 001.596-.972 4.685 4.685 0 001.076-1.388 3.742 3.742 0 00.382-1.63c0-.695-.185-1.296-.556-1.805-.346-.509-.948-.763-1.804-.763-.879 0-1.688.312-2.429.937a10.397 10.397 0 00-2.012 2.22 16.475 16.475 0 00-1.492 2.742c-.417.948-.729 1.78-.937 2.498-.116.393-.22.636-.313.728a.432.432 0 01-.312.14c-.254 0-.37-.244-.347-.73 0-.208.012-.462.035-.763.023-.3.046-.624.07-.971 0-.347.01-.694.034-1.041.023-.37.035-.706.035-1.007 0-1.04-.023-2.232-.07-3.574a289.703 289.703 0 00-.173-4.198 283.45 283.45 0 01-.174-4.337 124.166 124.166 0 01-.069-3.956c0-.949.07-1.862.208-2.741.139-.902.359-1.689.66-2.36.3-.694.682-1.237 1.145-1.63a2.36 2.36 0 011.63-.625c.648 0 1.192.115 1.631.347.463.208.833.52 1.11.937.278.393.475.879.59 1.457.14.555.209 1.168.209 1.839 0 1.157-.162 2.429-.486 3.817a32.494 32.494 0 01-1.284 4.129 35.18 35.18 0 01-1.84 4.025c-.67 1.272-1.364 2.383-2.081 3.331.046.694.07 1.411.07 2.151.023.74.057 1.527.104 2.36.578-1.25 1.214-2.325 1.908-3.227.3-.393.636-.775 1.006-1.145.394-.393.798-.74 1.215-1.041.44-.3.902-.544 1.388-.729a4.636 4.636 0 011.596-.277c.879 0 1.642.22 2.29.659.648.44.971 1.145.971 2.117 0 .925-.23 1.712-.694 2.36a5.888 5.888 0 01-1.665 1.63 8.097 8.097 0 01-2.151.937c-.764.208-1.458.335-2.082.382-.047 0-.07.011-.07.034 0 .047.035.116.104.209.463.531.983.913 1.562 1.144a4.8 4.8 0 001.804.347c.764 0 1.538-.138 2.325-.416.786-.3 1.538-.682 2.255-1.145a13.48 13.48 0 001.978-1.63 10.871 10.871 0 001.527-1.874c.231-.347.44-.706.625-1.076l.555-1.11.659.173zm4.892-2.151c0-.625-.162-1.134-.486-1.527-.3-.417-.798-.625-1.492-.625-.37 0-.706.116-1.006.347a2.843 2.843 0 00-.764.937c-.208.37-.37.81-.486 1.319a7.18 7.18 0 00-.173 1.596c0 .879.093 1.665.278 2.36.208.67.497 1.26.867 1.769A8.122 8.122 0 0068.98 44.8a9.71 9.71 0 001.006-1.596c.3-.556.532-1.11.694-1.666a5.592 5.592 0 00.243-1.561zm8.779 2.15c-.162.348-.336.706-.52 1.077a6.2 6.2 0 01-.626 1.04c-1.133 1.62-2.428 2.846-3.886 3.679-1.434.81-2.81 1.214-4.129 1.214-.74 0-1.434-.127-2.082-.382a4.449 4.449 0 01-1.63-1.145c-.463-.509-.833-1.145-1.111-1.908-.278-.763-.416-1.666-.416-2.707 0-.694.104-1.387.312-2.081a7.68 7.68 0 01.833-1.874 5.436 5.436 0 011.249-1.353c.486-.347.995-.521 1.526-.521.856 0 1.481.255 1.874.763.394.486.59 1.11.59 1.874 0 1.041-.324 2.175-.971 3.4-.625 1.203-1.527 2.325-2.707 3.366.88.995 2.013 1.492 3.4 1.492 1.041 0 2.129-.312 3.262-.936 1.134-.648 2.198-1.643 3.192-2.984a4.78 4.78 0 00.625-1.041c.185-.394.37-.775.555-1.145l.66.173zm30.061-8.743c-.856 0-1.677.092-2.463.277-.764.185-1.446.405-2.048.66-.578.254-1.052.52-1.422.798-.347.277-.521.52-.521.728 0 .278.324.417.972.417 1.11 0 2.163-.266 3.157-.798a10.37 10.37 0 002.742-2.082h-.417zm10.098 5.205c0 1.133-.324 2.36-.972 3.678-.625 1.318-1.492 2.625-2.602 3.92-1.111 1.296-2.429 2.545-3.956 3.748a32.106 32.106 0 01-4.927 3.192 27.443 27.443 0 01-5.552 2.186 21.132 21.132 0 01-5.83.833c-.323 0-.682-.011-1.075-.034a4.891 4.891 0 01-1.041-.174 1.971 1.971 0 01-.833-.382c-.231-.161-.347-.393-.347-.694 0-.416.208-.82.625-1.214.416-.37.948-.717 1.596-1.041a16.152 16.152 0 012.117-.867 37.4 37.4 0 012.186-.66 50.774 50.774 0 011.873-.45c.532-.093.891-.14 1.076-.14.139 0 .243.035.312.104.07.07.104.14.104.209 0 .115-.058.173-.173.173h-.451c-.602 0-1.365.116-2.29.347a21.7 21.7 0 00-2.707.868c-.879.347-1.63.728-2.255 1.145-.625.44-.937.844-.937 1.214 0 .255.08.451.243.59.185.162.404.29.659.382.254.092.52.15.798.173.278.047.52.07.729.07 1.642 0 3.32-.278 5.031-.833a26.226 26.226 0 005.031-2.22 28.532 28.532 0 004.615-3.159c1.458-1.18 2.73-2.405 3.817-3.678 1.087-1.295 1.943-2.579 2.568-3.851.624-1.296.937-2.498.937-3.609 0-1.365-.567-2.498-1.7-3.4-1.111-.926-2.95-1.458-5.518-1.596a13.77 13.77 0 01-3.435 2.36c-1.226.6-2.475.901-3.747.901-.902 0-1.354-.22-1.354-.66 0-.277.186-.589.556-.936.393-.37.925-.717 1.596-1.04.694-.325 1.515-.59 2.463-.799.949-.231 1.99-.347 3.123-.347h.417a11.898 11.898 0 001.839-2.95c.462-1.087.694-2.15.694-3.192 0-.694-.127-1.353-.382-1.977a3.808 3.808 0 00-1.18-1.666c-.532-.463-1.237-.833-2.116-1.11-.856-.278-1.897-.417-3.123-.417-.833 0-1.99.116-3.47.347-1.457.232-3.042.59-4.754 1.076a45.623 45.623 0 00-5.17 1.77c-1.758.717-3.354 1.55-4.788 2.498-1.435.948-2.603 2.024-3.505 3.227-.902 1.203-1.353 2.533-1.353 3.99 0 .185-.035.347-.104.486-.07.116-.14.174-.209.174-.092 0-.162-.093-.208-.278-.07-.208-.104-.544-.104-1.006.208-1.504.821-2.869 1.84-4.095 1.017-1.226 2.278-2.313 3.781-3.261a26.257 26.257 0 014.893-2.499 44.94 44.94 0 015.274-1.7c1.758-.463 3.389-.798 4.893-1.006 1.526-.232 2.776-.347 3.747-.347 1.411 0 2.603.138 3.574.416.995.255 1.804.613 2.429 1.076.625.44 1.076.971 1.353 1.596a4.81 4.81 0 01.417 1.978c0 1.133-.313 2.313-.937 3.539-.602 1.203-1.423 2.325-2.464 3.366 1.481.07 2.753.266 3.817.59 1.064.3 1.932.705 2.602 1.214.671.486 1.157 1.064 1.458 1.735.324.648.486 1.353.486 2.117zm-18.391 9.126c0 .323-.023.555-.069.693-.046.14-.174.209-.382.209-.463.046-.694-.417-.694-1.388a859.167 859.167 0 00-.104-8.744 456.646 456.646 0 00-.104-6.836 576.556 576.556 0 00-.069-4.615 166.49 166.49 0 01-.035-1.943c0-.185.058-.313.173-.382a1.71 1.71 0 01.417-.173c.185 0 .324.057.416.173a.567.567 0 01.174.416c0 1.851.011 3.76.034 5.726l.07 5.83c.046 1.942.081 3.85.104 5.725.046 1.873.069 3.643.069 5.309zm31.878-5.552c0-.347-.058-.625-.173-.833a.58.58 0 00-.555-.347c-.394 0-.694.197-.903.59-.208.37-.3.844-.277 1.422.069 1.226.289 2.256.659 3.089a6.002 6.002 0 00.902-1.805 6.43 6.43 0 00.347-2.116zm9.369-.035a44.78 44.78 0 01-.521 1.076 12.45 12.45 0 01-.624 1.04c-1.18 1.759-2.371 3.066-3.574 3.922-1.203.856-2.325 1.283-3.366 1.283-1.319 0-2.325-.624-3.019-1.873a8.28 8.28 0 01-2.741 1.839c-.995.416-1.978.624-2.949.624a5.689 5.689 0 01-1.666-.243 3.654 3.654 0 01-1.318-.728 3.75 3.75 0 01-.937-1.284c-.232-.532-.347-1.145-.347-1.84 0-.832.196-1.676.59-2.532.37-.88.89-1.666 1.561-2.36a8.876 8.876 0 012.429-1.77 6.653 6.653 0 013.019-.693c.879 0 1.561.127 2.047.381.486.232.729.451.729.66 0 .092-.047.162-.139.208a.562.562 0 01-.243.07c-.023-.024-.046-.035-.069-.035h-.035a3.062 3.062 0 00-.937-.59c-.347-.162-.856-.243-1.527-.243-.902 0-1.723.196-2.463.59a5.728 5.728 0 00-1.839 1.492 6.761 6.761 0 00-1.18 2.012 6.19 6.19 0 00-.417 2.186c0 1.388.324 2.395.972 3.019.648.625 1.457.937 2.429.937.786 0 1.608-.197 2.464-.59a7.289 7.289 0 002.29-1.666c-.37-.832-.556-1.92-.556-3.261 0-.88.162-1.643.486-2.29.324-.648.787-.972 1.388-.972.833 0 1.249.486 1.249 1.458 0 .971-.138 1.85-.416 2.637a8.193 8.193 0 01-1.11 2.081c.647 1.203 1.549 1.805 2.706 1.805.879 0 1.816-.37 2.811-1.11 1.018-.74 2.012-1.816 2.984-3.227.231-.347.439-.706.624-1.076l.556-1.11.659.173zm4.819-15.51c0-1.319-.219-2.371-.659-3.158-.416-.81-1.122-1.215-2.116-1.215-.347 0-.671.116-.972.348-.278.208-.52.497-.729.867-.208.37-.37.798-.485 1.284a6.71 6.71 0 00-.174 1.561c0 1.527.012 2.915.035 4.164.023 1.25.046 2.429.069 3.54.046 1.11.093 2.185.139 3.226l.139 3.193a20.58 20.58 0 001.873-3.088 30.409 30.409 0 001.493-3.61 25.44 25.44 0 001.006-3.712c.254-1.226.381-2.36.381-3.4zm12.561 15.51a41.17 41.17 0 01-.52 1.076c-.162.37-.37.717-.625 1.04-1.272 1.805-2.718 3.228-4.337 4.269-1.619 1.017-3.227 1.526-4.823 1.526a6.15 6.15 0 01-2.845-.694c-.903-.44-1.701-1.156-2.395-2.151-.092-.116-.138-.22-.138-.312 0-.209.138-.313.416-.313.023 0 .104.023.243.07.185 0 .393.07.624.208.255.116.613.173 1.076.173.717 0 1.388-.127 2.013-.381a5.466 5.466 0 001.596-.972 4.686 4.686 0 001.075-1.388 3.735 3.735 0 00.382-1.63c0-.695-.185-1.296-.555-1.805-.347-.509-.948-.763-1.804-.763-.879 0-1.689.312-2.429.937-.741.601-1.411 1.341-2.013 2.22a16.54 16.54 0 00-1.492 2.742c-.416.948-.729 1.78-.937 2.498-.115.393-.22.636-.312.728a.433.433 0 01-.312.14c-.255 0-.37-.244-.347-.73 0-.208.011-.462.034-.763.024-.3.047-.624.07-.971 0-.347.011-.694.034-1.041.024-.37.035-.706.035-1.007 0-1.04-.023-2.232-.069-3.574a278.85 278.85 0 00-.174-4.198 284.695 284.695 0 01-.173-4.337c-.046-1.435-.07-2.753-.07-3.956 0-.949.07-1.862.209-2.741.138-.902.358-1.689.659-2.36.301-.694.682-1.237 1.145-1.63a2.36 2.36 0 011.631-.625c.647 0 1.191.115 1.631.347.462.208.832.52 1.11.937.278.393.474.879.59 1.457a7.57 7.57 0 01.208 1.839c0 1.157-.162 2.429-.486 3.817a32.528 32.528 0 01-1.284 4.129 35.162 35.162 0 01-1.839 4.025c-.67 1.272-1.364 2.383-2.082 3.331.047.694.07 1.411.07 2.151.023.74.058 1.527.104 2.36.578-1.25 1.214-2.325 1.908-3.227.301-.393.637-.775 1.007-1.145.393-.393.798-.74 1.214-1.041.44-.3.902-.544 1.388-.729a4.636 4.636 0 011.596-.277c.879 0 1.643.22 2.29.659.648.44.972 1.145.972 2.117 0 .925-.231 1.712-.694 2.36a5.895 5.895 0 01-1.666 1.63 8.09 8.09 0 01-2.151.937c-.763.208-1.457.335-2.082.382-.046 0-.069.011-.069.034 0 .047.034.116.104.209.462.531.983.913 1.561 1.144a4.82 4.82 0 001.805.347 6.95 6.95 0 002.324-.416c.787-.3 1.539-.682 2.256-1.145a13.518 13.518 0 001.978-1.63 10.879 10.879 0 001.526-1.874c.232-.347.44-.706.625-1.076l.555-1.11.659.173zm4.892-2.151c0-.625-.162-1.134-.486-1.527-.3-.417-.798-.625-1.492-.625-.37 0-.705.116-1.006.347a2.819 2.819 0 00-.763.937c-.208.37-.37.81-.486 1.319a7.162 7.162 0 00-.174 1.596c0 .879.093 1.665.278 2.36.208.67.497 1.26.868 1.769a8.139 8.139 0 001.318-1.353 9.688 9.688 0 001.006-1.596 8.48 8.48 0 00.694-1.666 5.589 5.589 0 00.243-1.561zm8.779 2.15a44.65 44.65 0 01-.52 1.077 6.24 6.24 0 01-.625 1.04c-1.134 1.62-2.429 2.846-3.886 3.679-1.435.81-2.811 1.214-4.129 1.214a5.636 5.636 0 01-2.082-.382 4.44 4.44 0 01-1.631-1.145c-.463-.509-.833-1.145-1.111-1.908-.277-.763-.416-1.666-.416-2.707 0-.694.104-1.387.312-2.081a7.672 7.672 0 01.833-1.874 5.447 5.447 0 011.249-1.353c.486-.347.995-.521 1.527-.521.856 0 1.48.255 1.874.763.393.486.59 1.11.59 1.874 0 1.041-.324 2.175-.972 3.4-.625 1.203-1.527 2.325-2.706 3.366.879.995 2.012 1.492 3.4 1.492 1.041 0 2.128-.312 3.262-.936 1.133-.648 2.197-1.643 3.192-2.984.254-.324.463-.671.625-1.041.185-.394.37-.775.555-1.145l.659.173z" fill="#1F1711"/></svg>