<svg width="241" height="83" fill="none" xmlns="http://www.w3.org/2000/svg"><path d="M130.676 69.093a110.082 110.082 0 01-7.906-7.526 121.416 121.416 0 01-6.954-8.383 121.266 121.266 0 01-5.811-8.668c-1.715-2.985-3.176-5.907-4.382-8.764a726.869 726.869 0 00-6.478 7.144 70.927 70.927 0 00-5.62 7.145c-1.651 2.35-2.985 4.731-4.001 7.144-1.08 2.35-1.62 4.7-1.62 7.05 0 2.794.477 5.207 1.43 7.24.888 1.968 2.095 3.588 3.62 4.858 1.523 1.27 3.27 2.19 5.238 2.762 1.969.572 4.001.858 6.097.858 4.192 0 8.637-.985 13.337-2.954 4.699-1.968 9.049-4.604 13.05-7.906zm-11.812-56.49c0-2.222-.508-3.81-1.524-4.763-.953-1.016-2.001-1.524-3.144-1.524-.952 0-1.969.318-3.048.953-1.016.635-1.969 1.556-2.858 2.762-.826 1.143-1.524 2.54-2.096 4.192-.571 1.65-.857 3.46-.857 5.43 0 3.62.667 7.462 2 11.526a149.25 149.25 0 004.478-4.858c1.397-1.588 2.603-3.144 3.62-4.668 1.079-1.588 1.905-3.112 2.476-4.572.635-1.525.953-3.017.953-4.478zm36.675 69.54c0 .191-.127.382-.381.572-.254.19-.635.286-1.143.286-3.81-1.207-7.557-2.89-11.241-5.049-3.683-2.223-7.271-4.795-10.764-7.716a74.03 74.03 0 01-7.526 5.049 58.08 58.08 0 01-8.002 3.906 47.463 47.463 0 01-8.097 2.476c-2.667.572-5.239.858-7.716.858-2.413 0-4.7-.35-6.859-1.048-2.159-.635-4.032-1.62-5.62-2.953-1.588-1.398-2.826-3.112-3.715-5.144-.953-2.033-1.429-4.414-1.429-7.145 0-2.921.667-5.78 2-8.573 1.334-2.858 3.049-5.652 5.144-8.383a89.512 89.512 0 016.955-8.002l7.62-7.621c-1.841-4.954-2.762-9.43-2.762-13.432 0-2.35.413-4.509 1.238-6.478.889-1.968 2.001-3.651 3.334-5.048 1.334-1.398 2.795-2.477 4.382-3.24 1.652-.825 3.207-1.238 4.668-1.238 1.715 0 3.271.572 4.668 1.715 1.397 1.08 2.096 2.89 2.096 5.43 0 1.588-.413 3.239-1.239 4.954-.762 1.714-1.81 3.492-3.143 5.334-1.271 1.778-2.795 3.652-4.573 5.62a397.292 397.292 0 01-5.43 5.907c2.096 5.779 5.208 11.653 9.336 17.623 4.191 5.906 9.272 11.431 15.242 16.575 3.238-2.921 5.842-6.128 7.811-9.621 1.969-3.493 2.953-7.145 2.953-10.955a13.2 13.2 0 00-.572-3.81c-.317-1.334-.984-2.731-2-4.192 0-.127.19-.254.572-.381.381-.19.73-.286 1.047-.286.889 0 1.588.318 2.096.953.572.571.984 1.27 1.239 2.096a8.89 8.89 0 01.571 2.572c.127.825.191 1.492.191 2 0 4.192-1.175 8.256-3.525 12.193-2.286 3.874-5.271 7.43-8.955 10.67 6.161 5.27 13.115 9.557 20.863 12.86.444.254.666.476.666.667z" fill="#FFA55C"/><path d="M19.24 48.128c0-1.984-.128-3.632-.384-4.944-.224-1.312-.544-1.968-.96-1.968-.256 0-.496.192-.72.576-.224.352-.416.864-.576 1.536-.128.64-.24 1.408-.336 2.304a38.52 38.52 0 00-.096 2.832c0 1.824.128 3.792.384 5.904.256 2.08.704 4.096 1.344 6.048a57.233 57.233 0 001.008-6.288c.224-2.176.336-4.176.336-6zm20.112-21.792c0 .16-.064.288-.192.384-.128.096-.288.208-.48.336-.96.576-1.744 1.376-2.352 2.4a15.978 15.978 0 00-1.488 3.36 20.923 20.923 0 00-.72 3.744 34.048 34.048 0 00-.192 3.456c0 .736.032 1.648.096 2.736.096 1.056.192 2.224.288 3.504a74.2 74.2 0 01.288 4.08c.096 1.408.144 2.848.144 4.32 0 2.08-.128 4.096-.384 6.048-.224 1.952-.688 3.696-1.392 5.232-.672 1.536-1.616 2.768-2.832 3.696-1.216.928-2.8 1.392-4.752 1.392a6.247 6.247 0 01-2.544-.528 7.536 7.536 0 01-2.16-1.392 12.912 12.912 0 01-1.776-2.112c-.512-.8-.976-1.68-1.392-2.64a18.708 18.708 0 01-1.488 3.12 12.558 12.558 0 01-1.824 2.496 7.595 7.595 0 01-2.208 1.632c-.8.384-1.648.576-2.544.576-1.376 0-2.544-.352-3.504-1.056-.928-.704-1.696-1.632-2.304-2.784-.608-1.12-1.088-2.4-1.44-3.84-.32-1.472-.56-2.96-.72-4.464a75.455 75.455 0 01-.336-4.464 577.614 577.614 0 00-.096-3.888 55.568 55.568 0 01.096-5.712c.16-1.824.336-3.456.528-4.896.192-1.472.384-2.736.576-3.792.192-1.056.32-1.84.384-2.352.032-.192.224-.32.576-.384.384-.064.72-.096 1.008-.096.224 0 .416.032.576.096.16.032.24.128.24.288 0 .192-.08.528-.24 1.008-.16.448-.4 1.312-.72 2.592-.128.576-.272 1.408-.432 2.496a142.534 142.534 0 00-.384 3.6 146.325 146.325 0 00-.24 4.32 103.898 103.898 0 00-.096 4.416c0 1.12.048 2.352.144 3.696a41.27 41.27 0 00.48 3.936c.224 1.28.528 2.528.912 3.744.384 1.216.848 2.288 1.392 3.216.576.928 1.248 1.664 2.016 2.208.768.576 1.664.864 2.688.864.768 0 1.472-.192 2.112-.576.64-.384 1.232-.928 1.776-1.632.544-.672 1.024-1.472 1.44-2.4.448-.928.848-1.936 1.2-3.024a33.801 33.801 0 01-1.632-6.432c-.352-2.272-.528-4.368-.528-6.288 0-1.408.048-2.8.144-4.176.128-1.376.304-2.608.528-3.696.224-1.088.512-1.968.864-2.64.352-.672.768-1.008 1.248-1.008.384 0 .72.24 1.008.72.32.48.576 1.136.768 1.968.224.832.384 1.824.48 2.976.128 1.12.192 2.336.192 3.648 0 2.112-.144 4.336-.432 6.672a47.783 47.783 0 01-1.344 6.768c.416 1.12.896 2.16 1.44 3.12a13.173 13.173 0 001.824 2.448 7.989 7.989 0 002.304 1.632c.864.416 1.808.624 2.832.624 1.408 0 2.56-.352 3.456-1.056.896-.672 1.6-1.6 2.112-2.784.512-1.216.864-2.608 1.056-4.176.192-1.6.288-3.312.288-5.136 0-1.632-.064-3.312-.192-5.04-.096-1.728-.208-3.44-.336-5.136a850.838 850.838 0 00-.384-4.992 77.255 77.255 0 01-.144-4.512c0-.992.144-2.144.432-3.456a21.8 21.8 0 011.248-3.696c.544-1.184 1.152-2.176 1.824-2.976.704-.832 1.44-1.248 2.208-1.248.224 0 .448.112.672.336.224.192.336.384.336.576zM54.34 58.208c0-.48-.08-.864-.24-1.152-.16-.32-.416-.48-.768-.48-.544 0-.96.272-1.248.816-.288.512-.416 1.168-.384 1.968.096 1.696.4 3.12.912 4.272a8.302 8.302 0 001.248-2.496c.32-.928.48-1.904.48-2.928zm12.96-.048c-.224.48-.464.976-.72 1.488-.256.48-.544.96-.864 1.44-1.632 2.432-3.28 4.24-4.944 5.424-1.664 1.184-3.216 1.776-4.656 1.776-1.824 0-3.216-.864-4.176-2.592a11.467 11.467 0 01-3.792 2.544c-1.376.576-2.736.864-4.08.864a7.87 7.87 0 01-2.304-.336 5.063 5.063 0 01-1.824-1.008 5.205 5.205 0 01-1.296-1.776c-.32-.736-.48-1.584-.48-2.544 0-1.152.272-2.32.816-3.504a10.551 10.551 0 012.16-3.264c.96-.992 2.08-1.808 3.36-2.448 1.28-.64 2.672-.96 4.176-.96 1.216 0 2.16.176 2.832.528.672.32 1.008.624 1.008.912 0 .128-.064.224-.192.288a.773.773 0 01-.336.096c-.032-.032-.064-.048-.096-.048h-.048a4.226 4.226 0 00-1.296-.816c-.48-.224-1.184-.336-2.112-.336-1.248 0-2.384.272-3.408.816a7.951 7.951 0 00-2.544 2.064 9.373 9.373 0 00-1.632 2.784c-.384 1.024-.576 2.032-.576 3.024 0 1.92.448 3.312 1.344 4.176.896.864 2.016 1.296 3.36 1.296 1.088 0 2.224-.272 3.408-.816a10.068 10.068 0 003.168-2.304c-.512-1.152-.768-2.656-.768-4.512 0-1.216.224-2.272.672-3.168.448-.896 1.088-1.344 1.92-1.344 1.152 0 1.728.672 1.728 2.016 0 1.344-.192 2.56-.576 3.648a11.288 11.288 0 01-1.536 2.88c.896 1.664 2.144 2.496 3.744 2.496 1.216 0 2.512-.512 3.888-1.536 1.408-1.024 2.784-2.512 4.128-4.464.32-.48.608-.976.864-1.488l.768-1.536.912.24zm6.667-21.456c0-1.824-.304-3.28-.912-4.368-.576-1.12-1.552-1.68-2.928-1.68-.48 0-.928.16-1.344.48-.384.288-.72.688-1.008 1.2a6.838 6.838 0 00-.672 1.776 9.307 9.307 0 00-.24 2.16c0 2.112.016 4.032.048 5.76.032 1.728.064 3.36.096 4.896.064 1.536.128 3.024.192 4.464.064 1.44.128 2.912.192 4.416.928-1.248 1.792-2.672 2.592-4.272a42.067 42.067 0 002.064-4.992 35.053 35.053 0 001.392-5.136c.352-1.696.528-3.264.528-4.704zM91.343 58.16c-.224.48-.464.976-.72 1.488a6.615 6.615 0 01-.864 1.44c-1.76 2.496-3.76 4.464-6 5.904-2.24 1.408-4.464 2.112-6.672 2.112a8.512 8.512 0 01-3.936-.96c-1.248-.608-2.352-1.6-3.312-2.976-.128-.16-.192-.304-.192-.432 0-.288.192-.432.576-.432.032 0 .144.032.336.096.256 0 .544.096.864.288.352.16.848.24 1.488.24.992 0 1.92-.176 2.784-.528.864-.352 1.6-.8 2.208-1.344a6.479 6.479 0 001.488-1.92 5.175 5.175 0 00.528-2.256c0-.96-.256-1.792-.768-2.496-.48-.704-1.312-1.056-2.496-1.056-1.216 0-2.336.432-3.36 1.296-1.024.832-1.952 1.856-2.784 3.072a22.79 22.79 0 00-2.064 3.792c-.576 1.312-1.008 2.464-1.296 3.456-.16.544-.304.88-.432 1.008a.597.597 0 01-.432.192c-.352 0-.512-.336-.48-1.008 0-.288.016-.64.048-1.056.032-.416.064-.864.096-1.344 0-.48.016-.96.048-1.44.032-.512.048-.976.048-1.392 0-1.44-.032-3.088-.096-4.944a402.078 402.078 0 00-.24-5.808 391.562 391.562 0 01-.24-6 170.706 170.706 0 01-.096-5.472c0-1.312.096-2.576.288-3.792.192-1.248.496-2.336.912-3.264.416-.96.944-1.712 1.584-2.256a3.264 3.264 0 012.256-.864c.896 0 1.648.16 2.256.48.64.288 1.152.72 1.536 1.296.384.544.656 1.216.816 2.016.192.768.288 1.616.288 2.544 0 1.6-.224 3.36-.672 5.28a44.961 44.961 0 01-1.776 5.712 48.665 48.665 0 01-2.544 5.568c-.928 1.76-1.888 3.296-2.88 4.608.064.96.096 1.952.096 2.976.032 1.024.08 2.112.144 3.264.8-1.728 1.68-3.216 2.64-4.464.416-.544.88-1.072 1.392-1.584a13.846 13.846 0 011.68-1.44 9.176 9.176 0 011.92-1.008 6.41 6.41 0 012.208-.384c1.216 0 2.272.304 3.168.912.896.608 1.344 1.584 1.344 2.928 0 1.28-.32 2.368-.96 3.264a8.147 8.147 0 01-2.304 2.256 11.203 11.203 0 01-2.976 1.296c-1.056.288-2.016.464-2.88.528-.064 0-.096.016-.096.048 0 .064.048.16.144.288.64.736 1.36 1.264 2.16 1.584.8.32 1.632.48 2.496.48 1.056 0 2.128-.192 3.216-.576a16.825 16.825 0 003.12-1.584 18.652 18.652 0 002.736-2.256c.864-.864 1.568-1.728 2.112-2.592.32-.48.608-.976.864-1.488l.768-1.536.912.24zm6.767-2.976c0-.864-.224-1.568-.672-2.112-.416-.576-1.104-.864-2.064-.864-.512 0-.976.16-1.392.48-.416.32-.768.752-1.056 1.296-.288.512-.512 1.12-.672 1.824-.16.704-.24 1.44-.24 2.208 0 1.216.128 2.304.384 3.264.288.928.688 1.744 1.2 2.448a11.236 11.236 0 001.824-1.872 13.43 13.43 0 001.392-2.208c.416-.768.736-1.536.96-2.304.224-.768.336-1.488.336-2.16zm12.144 2.976c-.224.48-.464.976-.72 1.488-.224.48-.512.96-.864 1.44-1.568 2.24-3.36 3.936-5.376 5.088-1.984 1.12-3.888 1.68-5.712 1.68a7.805 7.805 0 01-2.88-.528 6.155 6.155 0 01-2.256-1.584c-.64-.704-1.152-1.584-1.536-2.64-.384-1.056-.576-2.304-.576-3.744 0-.96.144-1.92.432-2.88.288-.96.672-1.824 1.152-2.592.512-.768 1.088-1.392 1.728-1.872.672-.48 1.376-.72 2.112-.72 1.184 0 2.048.352 2.592 1.056.544.672.816 1.536.816 2.592 0 1.44-.448 3.008-1.344 4.704-.864 1.664-2.112 3.216-3.744 4.656 1.216 1.376 2.784 2.064 4.704 2.064 1.44 0 2.944-.432 4.512-1.296 1.568-.896 3.04-2.272 4.416-4.128.352-.448.64-.928.864-1.44.256-.544.512-1.072.768-1.584l.912.24zm41.585-12.096c-1.184 0-2.32.128-3.408.384-1.056.256-2 .56-2.832.912-.8.352-1.456.72-1.968 1.104-.48.384-.72.72-.72 1.008 0 .384.448.576 1.344.576a9.13 9.13 0 004.368-1.104 14.333 14.333 0 003.792-2.88h-.576zm13.968 7.2c0 1.568-.448 3.264-1.344 5.088-.864 1.824-2.064 3.632-3.6 5.424-1.536 1.792-3.36 3.52-5.472 5.184a44.395 44.395 0 01-6.816 4.416 37.962 37.962 0 01-7.68 3.024 29.232 29.232 0 01-8.064 1.152c-.448 0-.944-.016-1.488-.048a6.768 6.768 0 01-1.44-.24 2.728 2.728 0 01-1.152-.528c-.32-.224-.48-.544-.48-.96 0-.576.288-1.136.864-1.68.576-.512 1.312-.992 2.208-1.44a22.338 22.338 0 012.928-1.2 51.775 51.775 0 013.024-.912 70.496 70.496 0 012.592-.624c.736-.128 1.232-.192 1.488-.192.192 0 .336.048.432.144.096.096.144.192.144.288 0 .16-.08.24-.24.24h-.624c-.832 0-1.888.16-3.168.48-1.28.32-2.528.72-3.744 1.2-1.216.48-2.256 1.008-3.12 1.584-.864.608-1.296 1.168-1.296 1.68 0 .352.112.624.336.816.256.224.56.4.912.528s.72.208 1.104.24c.384.064.72.096 1.008.096 2.272 0 4.592-.384 6.96-1.152 2.4-.768 4.72-1.792 6.96-3.072a39.515 39.515 0 006.384-4.368c2.016-1.632 3.776-3.328 5.28-5.088 1.504-1.792 2.688-3.568 3.552-5.328.864-1.792 1.296-3.456 1.296-4.992 0-1.888-.784-3.456-2.352-4.704-1.536-1.28-4.08-2.016-7.632-2.208a19.043 19.043 0 01-4.752 3.264c-1.696.832-3.424 1.248-5.184 1.248-1.248 0-1.872-.304-1.872-.912 0-.384.256-.816.768-1.296.544-.512 1.28-.992 2.208-1.44.96-.448 2.096-.816 3.408-1.104 1.312-.32 2.752-.48 4.32-.48h.576a16.431 16.431 0 002.544-4.08c.64-1.504.96-2.976.96-4.416 0-.96-.176-1.872-.528-2.736-.32-.896-.864-1.664-1.632-2.304-.736-.64-1.712-1.152-2.928-1.536-1.184-.384-2.624-.576-4.32-.576-1.152 0-2.752.16-4.8.48-2.016.32-4.208.816-6.576 1.488a63.115 63.115 0 00-7.152 2.448c-2.432.992-4.64 2.144-6.624 3.456-1.984 1.312-3.6 2.8-4.848 4.464-1.248 1.664-1.872 3.504-1.872 5.52 0 .256-.048.48-.144.672-.096.16-.192.24-.288.24-.128 0-.224-.128-.288-.384-.096-.288-.144-.752-.144-1.392.288-2.08 1.136-3.968 2.544-5.664 1.408-1.696 3.152-3.2 5.232-4.512 2.048-1.344 4.304-2.496 6.768-3.456a62.15 62.15 0 017.296-2.352c2.432-.64 4.688-1.104 6.768-1.392 2.112-.32 3.84-.48 5.184-.48 1.952 0 3.6.192 4.944.576 1.376.352 2.496.848 3.36 1.488.864.608 1.488 1.344 1.872 2.208.384.864.576 1.776.576 2.736 0 1.568-.432 3.2-1.296 4.896-.832 1.664-1.968 3.216-3.408 4.656 2.048.096 3.808.368 5.28.816 1.472.416 2.672.976 3.6 1.68.928.672 1.6 1.472 2.016 2.4.448.896.672 1.872.672 2.928zm-25.44 12.624c0 .448-.032.768-.096.96-.064.192-.24.288-.528.288-.64.064-.96-.576-.96-1.92-.032-4.416-.08-8.448-.144-12.096-.032-3.648-.08-6.8-.144-9.456a792.932 792.932 0 00-.096-6.384 258.837 258.837 0 01-.048-2.688c0-.256.08-.432.24-.528a2.4 2.4 0 01.576-.24c.256 0 .448.08.576.24.16.16.24.352.24.576 0 2.56.016 5.2.048 7.92l.096 8.064c.064 2.688.112 5.328.144 7.92.064 2.592.096 5.04.096 7.344zm44.098-7.68c0-.48-.08-.864-.24-1.152-.16-.32-.416-.48-.768-.48-.544 0-.96.272-1.248.816-.288.512-.416 1.168-.384 1.968.096 1.696.4 3.12.912 4.272a8.302 8.302 0 001.248-2.496c.32-.928.48-1.904.48-2.928zm12.96-.048c-.224.48-.464.976-.72 1.488-.256.48-.544.96-.864 1.44-1.632 2.432-3.28 4.24-4.944 5.424-1.664 1.184-3.216 1.776-4.656 1.776-1.824 0-3.216-.864-4.176-2.592a11.467 11.467 0 01-3.792 2.544c-1.376.576-2.736.864-4.08.864a7.87 7.87 0 01-2.304-.336 5.063 5.063 0 01-1.824-1.008 5.205 5.205 0 01-1.296-1.776c-.32-.736-.48-1.584-.48-2.544 0-1.152.272-2.32.816-3.504a10.551 10.551 0 012.16-3.264c.96-.992 2.08-1.808 3.36-2.448 1.28-.64 2.672-.96 4.176-.96 1.216 0 2.16.176 2.832.528.672.32 1.008.624 1.008.912 0 .128-.064.224-.192.288a.773.773 0 01-.336.096c-.032-.032-.064-.048-.096-.048h-.048a4.226 4.226 0 00-1.296-.816c-.48-.224-1.184-.336-2.112-.336-1.248 0-2.384.272-3.408.816a7.951 7.951 0 00-2.544 2.064 9.373 9.373 0 00-1.632 2.784c-.384 1.024-.576 2.032-.576 3.024 0 1.92.448 3.312 1.344 4.176.896.864 2.016 1.296 3.36 1.296 1.088 0 2.224-.272 3.408-.816a10.068 10.068 0 003.168-2.304c-.512-1.152-.768-2.656-.768-4.512 0-1.216.224-2.272.672-3.168.448-.896 1.088-1.344 1.92-1.344 1.152 0 1.728.672 1.728 2.016 0 1.344-.192 2.56-.576 3.648a11.288 11.288 0 01-1.536 2.88c.896 1.664 2.144 2.496 3.744 2.496 1.216 0 2.512-.512 3.888-1.536 1.408-1.024 2.784-2.512 4.128-4.464.32-.48.608-.976.864-1.488l.768-1.536.912.24zm6.667-21.456c0-1.824-.304-3.28-.912-4.368-.576-1.12-1.552-1.68-2.928-1.68-.48 0-.928.16-1.344.48-.384.288-.72.688-1.008 1.2a6.838 6.838 0 00-.672 1.776 9.307 9.307 0 00-.24 2.16c0 2.112.016 4.032.048 5.76.032 1.728.064 3.36.096 4.896.064 1.536.128 3.024.192 4.464.064 1.44.128 2.912.192 4.416.928-1.248 1.792-2.672 2.592-4.272a42.067 42.067 0 002.064-4.992 35.053 35.053 0 001.392-5.136c.352-1.696.528-3.264.528-4.704zm17.376 21.456c-.224.48-.464.976-.72 1.488a6.615 6.615 0 01-.864 1.44c-1.76 2.496-3.76 4.464-6 5.904-2.24 1.408-4.464 2.112-6.672 2.112a8.512 8.512 0 01-3.936-.96c-1.248-.608-2.352-1.6-3.312-2.976-.128-.16-.192-.304-.192-.432 0-.288.192-.432.576-.432.032 0 .144.032.336.096.256 0 .544.096.864.288.352.16.848.24 1.488.24.992 0 1.92-.176 2.784-.528.864-.352 1.6-.8 2.208-1.344a6.48 6.48 0 001.488-1.92 5.177 5.177 0 00.528-2.256c0-.96-.256-1.792-.768-2.496-.48-.704-1.312-1.056-2.496-1.056-1.216 0-2.336.432-3.36 1.296-1.024.832-1.952 1.856-2.784 3.072a22.79 22.79 0 00-2.064 3.792c-.576 1.312-1.008 2.464-1.296 3.456-.16.544-.304.88-.432 1.008a.597.597 0 01-.432.192c-.352 0-.512-.336-.48-1.008 0-.288.016-.64.048-1.056.032-.416.064-.864.096-1.344 0-.48.016-.96.048-1.44.032-.512.048-.976.048-1.392 0-1.44-.032-3.088-.096-4.944a402.078 402.078 0 00-.24-5.808 391.562 391.562 0 01-.24-6 170.706 170.706 0 01-.096-5.472c0-1.312.096-2.576.288-3.792.192-1.248.496-2.336.912-3.264.416-.96.944-1.712 1.584-2.256a3.264 3.264 0 012.256-.864c.896 0 1.648.16 2.256.48.64.288 1.152.72 1.536 1.296.384.544.656 1.216.816 2.016.192.768.288 1.616.288 2.544 0 1.6-.224 3.36-.672 5.28a44.961 44.961 0 01-1.776 5.712 48.665 48.665 0 01-2.544 5.568c-.928 1.76-1.888 3.296-2.88 4.608.064.96.096 1.952.096 2.976.032 1.024.08 2.112.144 3.264.8-1.728 1.68-3.216 2.64-4.464.416-.544.88-1.072 1.392-1.584a13.846 13.846 0 011.68-1.44 9.176 9.176 0 011.92-1.008 6.41 6.41 0 012.208-.384c1.216 0 2.272.304 3.168.912.896.608 1.344 1.584 1.344 2.928 0 1.28-.32 2.368-.96 3.264a8.147 8.147 0 01-2.304 2.256 11.203 11.203 0 01-2.976 1.296c-1.056.288-2.016.464-2.88.528-.064 0-.096.016-.096.048 0 .064.048.16.144.288.64.736 1.36 1.264 2.16 1.584.8.32 1.632.48 2.496.48 1.056 0 2.128-.192 3.216-.576a16.827 16.827 0 003.12-1.584 18.652 18.652 0 002.736-2.256c.864-.864 1.568-1.728 2.112-2.592.32-.48.608-.976.864-1.488l.768-1.536.912.24zm6.767-2.976c0-.864-.224-1.568-.672-2.112-.416-.576-1.104-.864-2.064-.864-.512 0-.976.16-1.392.48-.416.32-.768.752-1.056 1.296-.288.512-.512 1.12-.672 1.824-.16.704-.24 1.44-.24 2.208 0 1.216.128 2.304.384 3.264.288.928.688 1.744 1.2 2.448a11.236 11.236 0 001.824-1.872 13.43 13.43 0 001.392-2.208c.416-.768.736-1.536.96-2.304.224-.768.336-1.488.336-2.16zm12.144 2.976c-.224.48-.464.976-.72 1.488-.224.48-.512.96-.864 1.44-1.568 2.24-3.36 3.936-5.376 5.088-1.984 1.12-3.888 1.68-5.712 1.68a7.805 7.805 0 01-2.88-.528 6.155 6.155 0 01-2.256-1.584c-.64-.704-1.152-1.584-1.536-2.64-.384-1.056-.576-2.304-.576-3.744 0-.96.144-1.92.432-2.88.288-.96.672-1.824 1.152-2.592.512-.768 1.088-1.392 1.728-1.872.672-.48 1.376-.72 2.112-.72 1.184 0 2.048.352 2.592 1.056.544.672.816 1.536.816 2.592 0 1.44-.448 3.008-1.344 4.704-.864 1.664-2.112 3.216-3.744 4.656 1.216 1.376 2.784 2.064 4.704 2.064 1.44 0 2.944-.432 4.512-1.296 1.568-.896 3.04-2.272 4.416-4.128.352-.448.64-.928.864-1.44.256-.544.512-1.072.768-1.584l.912.24z" fill="#FFF9F4"/></svg>