<svg width="10" height="10" fill="none" xmlns="http://www.w3.org/2000/svg"><path d="M2.2 6.034h.3a.3.3 0 00-.18-.275l-.12.275zm5.6 0l-.12-.275a.3.3 0 00-.18.275h.3zM6.5 3a.3.3 0 00.6 0h-.6zM2.9 3a.3.3 0 00.6 0h-.6zM3 1.9A2.3 2.3 0 00.7 4.2h.6A1.7 1.7 0 013 2.5v-.6zm4 .6a1.7 1.7 0 011.7 1.7h.6A2.3 2.3 0 007 1.9v.6zm-.8 6.2H3.8v.6h2.4v-.6zm-2.4 0c-.386 0-.645 0-.838-.027-.184-.024-.264-.067-.316-.12l-.424.425c.182.182.41.256.66.29.243.033.55.032.918.032v-.6zM1.9 7.4c0 .369 0 .675.032.918.034.251.108.478.29.66l.424-.424c-.052-.052-.094-.131-.12-.316-.025-.193-.026-.452-.026-.838h-.6zm5.6 0c0 .386 0 .645-.027.838-.025.185-.067.264-.12.316l.425.424c.182-.182.256-.409.29-.66.033-.243.032-.549.032-.918h-.6zM6.2 9.3c.369 0 .675.001.918-.032.25-.033.478-.108.66-.29l-.424-.424c-.052.052-.132.095-.316.12-.193.025-.452.026-.838.026v.6zM3 2.5c.086 0 .17.007.251.019l.088-.594A2.316 2.316 0 003 1.9v.6zM5 .7a2.1 2.1 0 00-1.99 1.425l.569.193A1.5 1.5 0 015 1.3V.7zM3.01 2.125a2.098 2.098 0 00-.11.675h.6c0-.169.028-.331.08-.482l-.57-.193zM7 1.9c-.115 0-.228.009-.339.025l.088.594c.083-.013.167-.019.251-.019v-.6zm-2-.6a1.5 1.5 0 011.42 1.018l.569-.193A2.1 2.1 0 005 .7v.6zm1.42 1.018c.052.151.08.313.08.482h.6c0-.235-.04-.462-.111-.675l-.568.193zM2.5 7.4V6.034h-.6V7.4h.6zm-.18-1.64A1.7 1.7 0 011.3 4.2H.7a2.3 2.3 0 001.38 2.11l.24-.55zm5.18.275V7.4h.6V6.034h-.6zM8.7 4.2a1.7 1.7 0 01-1.02 1.56l.24.55A2.3 2.3 0 009.3 4.2h-.6zM6.5 2.8V3h.6v-.2h-.6zm-3.6 0V3h.6v-.2h-.6z" fill="#312C27"/><path opacity=".5" d="M5 4.198l-.208.217a.3.3 0 00.416 0L5 4.198zm-.206 1.228a3.085 3.085 0 01-.49-.437c-.148-.17-.204-.303-.204-.389h-.6c0 .308.176.58.35.781.181.21.406.393.59.528l.354-.483zM4.1 4.6c0-.23.105-.33.197-.363.1-.035.285-.024.496.178l.415-.434c-.33-.316-.745-.438-1.11-.31-.373.131-.598.49-.598.929h.6zm1.46 1.31c.184-.136.409-.32.59-.529.174-.2.35-.473.35-.781h-.6c0 .086-.056.218-.204.389-.14.161-.324.314-.49.437l.354.484zM6.5 4.6c0-.439-.225-.798-.598-.929-.365-.128-.78-.005-1.11.31l.416.434c.21-.202.395-.213.496-.178.09.032.196.133.196.363h.6zM4.44 5.91c.147.108.313.242.56.242v-.6c-.01 0-.016 0-.038-.011a1.599 1.599 0 01-.168-.115l-.354.484zm.766-.484a1.72 1.72 0 01-.168.115c-.022.011-.028.011-.038.011v.6c.247 0 .413-.134.56-.242l-.354-.484z" fill="#312C27"/><path opacity=".5" d="M2.2 7.4h5.6" stroke="#312C27" stroke-width="1.5" stroke-linecap="round" stroke-linejoin="round"/></svg>