<svg width="23" height="22" fill="none" xmlns="http://www.w3.org/2000/svg"><path d="M4.5 13.584h.75a.75.75 0 00-.45-.687l-.3.687zm14 0l-.3-.687a.75.75 0 00-.45.687h.75zM15.25 6a.75.75 0 101.5 0h-1.5zm-9 0a.75.75 0 001.5 0h-1.5zm.25-2.75A5.75 5.75 0 00.75 9h1.5A4.25 4.25 0 016.5 4.75v-1.5zm10 1.5A4.25 4.25 0 0120.75 9h1.5a5.75 5.75 0 00-5.75-5.75v1.5zm-2 15.5h-6v1.5h6v-1.5zm-6 0c-.964 0-1.612-.002-2.095-.067-.461-.062-.659-.169-.789-.3l-1.06 1.062c.455.455 1.022.64 1.65.725.606.082 1.372.08 2.294.08v-1.5zM3.75 17c0 .922-.002 1.688.08 2.294.084.628.27 1.195.725 1.65l1.061-1.06c-.13-.13-.237-.328-.3-.79-.064-.482-.066-1.13-.066-2.094h-1.5zm14 0c0 .964-.002 1.612-.067 2.095-.062.461-.169.659-.3.789l1.062 1.06c.455-.455.64-1.022.725-1.65.082-.606.08-1.372.08-2.294h-1.5zm-3.25 4.75c.922 0 1.688.002 2.294-.08.628-.084 1.196-.27 1.651-.726l-1.061-1.06c-.13.13-.328.237-.79.3-.482.064-1.13.066-2.094.066v1.5zm-8-17c.214 0 .423.016.628.046l.219-1.484A5.791 5.791 0 006.5 3.25v1.5zm5-4.5a5.252 5.252 0 00-4.973 3.563l1.42.482A3.752 3.752 0 0111.5 1.75V.25zM6.527 3.813A5.245 5.245 0 006.25 5.5h1.5c0-.423.07-.828.198-1.205l-1.421-.482zM16.5 3.25c-.287 0-.57.021-.847.062l.22 1.484a4.29 4.29 0 01.627-.046v-1.5zm-5-1.5a3.752 3.752 0 013.552 2.545l1.42-.482A5.252 5.252 0 0011.5.25v1.5zm3.552 2.545c.128.377.198.782.198 1.205h1.5c0-.589-.098-1.156-.278-1.687l-1.419.482h-.001zM5.25 17v-3.416h-1.5V17h1.5zm-.45-4.103A4.25 4.25 0 012.25 9H.75a5.75 5.75 0 003.45 5.271l.6-1.374zm12.95.687V17h1.5v-3.416h-1.5zm3-4.584a4.25 4.25 0 01-2.55 3.897l.6 1.374A5.75 5.75 0 0022.25 9h-1.5zm-5.5-3.5V6h1.5v-.5h-1.5zm-9 0V6h1.5v-.5h-1.5z" fill="#1F1711"/><path opacity=".7" d="M11.5 8.995l-.519.542a.75.75 0 001.038 0l-.519-.542zm-.514 3.07c-.417-.307-.878-.69-1.227-1.093-.368-.426-.509-.757-.509-.972h-1.5c0 .77.441 1.451.875 1.953.453.524 1.014.983 1.474 1.32l.887-1.209zM9.25 10c0-.576.263-.826.492-.907.25-.088.714-.06 1.24.444l1.037-1.084c-.825-.79-1.861-1.095-2.773-.775C8.312 8.005 7.75 8.903 7.75 10h1.5zm3.65 3.274c.46-.338 1.022-.797 1.475-1.32.434-.503.875-1.184.875-1.954h-1.5c0 .215-.141.546-.51.972-.348.403-.809.786-1.226 1.092l.887 1.21H12.9zM15.25 10c0-1.097-.563-1.995-1.496-2.322-.912-.32-1.948-.014-2.773.775l1.038 1.084c.525-.504.989-.532 1.24-.444.228.08.491.331.491.907h1.5zm-5.15 3.274c.368.27.782.607 1.4.607v-1.5c-.024 0-.04 0-.094-.029a4 4 0 01-.42-.288l-.887 1.21h.001zm1.914-1.21a4 4 0 01-.42.288c-.054.03-.07.03-.094.03v1.5c.618 0 1.032-.338 1.4-.608l-.886-1.21z" fill="#1F1711"/><path opacity=".7" d="M4.5 17h14" stroke="#1F1711" stroke-width="1.5" stroke-linecap="round" stroke-linejoin="round"/></svg>