<svg width="46" height="46" fill="none" xmlns="http://www.w3.org/2000/svg"><path d="M36.773 11.084h-4.409a3.666 3.666 0 00-.944-3.557 3.746 3.746 0 00-5.243 0L23 10.711l-3.168-3.184a3.705 3.705 0 00-5.242 0 3.666 3.666 0 00-.945 3.557H9.227a2.779 2.779 0 00-2.779 2.779v1.852a2.755 2.755 0 001.732 2.557v16.654a4.644 4.644 0 004.631 4.63H33.19a4.631 4.631 0 004.631-4.63V18.29a2.796 2.796 0 001.741-2.575v-1.852a2.777 2.777 0 00-2.788-2.78zM15.896 8.84a1.853 1.853 0 012.612 0l2.241 2.244h-5.131a1.832 1.832 0 01.278-2.244zm5.252 28.864H12.81a2.779 2.779 0 01-2.778-2.779V18.494h11.115v19.21zm0-21.063H9.227a.926.926 0 01-.927-.926v-1.852a.926.926 0 01.927-.927h11.92v3.705zm6.354-7.8a1.852 1.852 0 012.908 2.243h-5.15l2.242-2.244zm8.466 26.084a2.779 2.779 0 01-2.78 2.78h-8.335V18.493h11.115v16.431zm1.74-19.21a.926.926 0 01-.925.926h-11.93v-3.705h11.93a.926.926 0 01.926.927v1.852z" fill="#704174"/></svg>