<svg width="20" height="20" fill="none" xmlns="http://www.w3.org/2000/svg"><path d="M14 5a1 1 0 112 0 1 1 0 01-2 0z" fill="#CEAAD0"/><path fill-rule="evenodd" clip-rule="evenodd" d="M10 5.25a4.75 4.75 0 100 9.5 4.75 4.75 0 000-9.5zM6.75 10a3.25 3.25 0 116.5 0 3.25 3.25 0 01-6.5 0z" fill="#CEAAD0"/><path fill-rule="evenodd" clip-rule="evenodd" d="M15.258.833a47.721 47.721 0 00-10.516 0C2.73 1.058 1.105 2.643.87 4.665a45.921 45.921 0 000 10.67c.236 2.021 1.86 3.607 3.873 3.831 3.495.388 7.021.388 10.516 0 2.012-.224 3.637-1.81 3.873-3.832a45.922 45.922 0 000-10.67c-.236-2.021-1.86-3.606-3.873-3.831zm-10.35 1.49a46.22 46.22 0 0110.184 0c1.33.15 2.395 1.199 2.55 2.517a44.416 44.416 0 010 10.32 2.89 2.89 0 01-2.55 2.515c-3.384.376-6.8.376-10.184 0a2.89 2.89 0 01-2.55-2.516 44.42 44.42 0 010-10.32 2.89 2.89 0 012.55-2.516z" fill="#CEAAD0"/></svg>