<svg width="36" height="36" fill="none" xmlns="http://www.w3.org/2000/svg"><path d="M24 10.5a1.5 1.5 0 113 0 1.5 1.5 0 01-3 0z" fill="#FFF9F4"/><path fill-rule="evenodd" clip-rule="evenodd" d="M18 10.875a7.125 7.125 0 100 14.25 7.125 7.125 0 000-14.25zM13.125 18a4.875 4.875 0 119.75 0 4.875 4.875 0 01-9.75 0z" fill="#FFF9F4"/><path fill-rule="evenodd" clip-rule="evenodd" d="M25.887 4.248a71.581 71.581 0 00-15.774 0c-3.018.338-5.455 2.715-5.81 5.748a68.883 68.883 0 000 16.005c.355 3.033 2.79 5.41 5.81 5.748 5.242.58 10.532.58 15.774 0 3.018-.337 5.456-2.715 5.81-5.748a68.872 68.872 0 000-16.005c-.354-3.033-2.79-5.41-5.81-5.748zM10.362 6.483a69.33 69.33 0 0115.276 0c1.995.225 3.593 1.799 3.825 3.776a66.635 66.635 0 010 15.48 4.335 4.335 0 01-3.825 3.774c-5.076.563-10.2.563-15.276 0a4.335 4.335 0 01-3.825-3.774 66.632 66.632 0 010-15.48 4.335 4.335 0 013.825-3.776z" fill="#FFF9F4"/></svg>