<svg width="36" height="36" fill="none" xmlns="http://www.w3.org/2000/svg"><path fill-rule="evenodd" clip-rule="evenodd" d="M35.108 25.297a17.092 17.092 0 00-3.185-4.446 23.442 23.442 0 00-1.357-1.41l-.057-.055c-.176-.17-.349-.343-.52-.518a44.574 44.574 0 004.515-7.855l.05-.111.035-.117c.163-.545.349-1.58-.311-2.516-.684-.966-1.777-1.14-2.511-1.14h-3.37a3.348 3.348 0 00-3.285 2.163 26.255 26.255 0 01-2.71 4.907v-3.95c0-.51-.047-1.365-.595-2.085-.654-.864-1.6-1.035-2.258-1.035h-5.348a2.72 2.72 0 00-2.776 2.523l-.004.068v.067c0 .728.288 1.265.519 1.602.104.152.213.29.284.377l.014.02c.075.092.125.154.175.223.131.177.319.453.373 1.164v2.21a29.682 29.682 0 01-2.627-5.689l-.011-.033-.012-.031c-.183-.479-.476-1.175-1.063-1.706-.684-.622-1.494-.795-2.23-.795h-3.42c-.745 0-1.644.174-2.314.881C.45 8.706.375 9.54.375 9.98v.2l.042.196a29.145 29.145 0 005.702 12.03 15.226 15.226 0 0011.839 7.038l.062.004h.063c1.089 0 2.224-.094 3.078-.663 1.15-.768 1.241-1.945 1.241-2.533v-1.707c.296.24.662.56 1.11.993.543.543.976 1.014 1.346 1.425l.198.219c.288.32.572.637.83.897.323.325.724.684 1.225.95a3.627 3.627 0 001.722.416h3.422c.721 0 1.755-.17 2.482-1.014.792-.918.732-2.044.483-2.853l-.045-.145-.067-.137zm-8.58.16a39.34 39.34 0 00-1.436-1.522l-.005-.004c-2.035-1.962-2.985-2.303-3.657-2.303-.358 0-.753.04-1.009.36a1.162 1.162 0 00-.22.522c-.037.22-.053.443-.049.666v3.077c0 .382-.063.543-.24.66-.235.157-.738.285-1.816.285A12.975 12.975 0 017.968 21.12l-.012-.02-.015-.018A26.894 26.894 0 012.625 9.945c.006-.195.048-.314.117-.386.07-.075.243-.18.681-.18h3.42c.38 0 .577.084.72.212.159.147.3.394.468.835.84 2.47 1.974 4.78 3.05 6.476.537.849 1.065 1.555 1.542 2.055.238.249.47.456.694.603.214.14.459.253.711.253.132 0 .287-.015.435-.08a.784.784 0 00.375-.347c.155-.282.198-.698.198-1.242v-5.06c-.08-1.227-.45-1.918-.81-2.409a8.488 8.488 0 00-.225-.29l-.02-.023a3.986 3.986 0 01-.182-.24.585.585 0 01-.128-.321.47.47 0 01.486-.423h5.392c.31 0 .413.075.466.145.075.098.137.3.137.726v6.792c0 .807.372 1.353.912 1.353.622 0 1.07-.376 1.853-1.16l.013-.014.012-.014a28.513 28.513 0 004.26-7.083l.006-.018a1.098 1.098 0 011.11-.727h3.45c.468 0 .621.12.672.19.053.075.09.236 0 .55a42.322 42.322 0 01-4.543 7.8l-.012.019c-.173.265-.363.56-.39.895-.03.363.126.692.4 1.046.2.294.613.697 1.031 1.107l.039.039c.438.429.913.894 1.294 1.344l.011.01.01.012a14.84 14.84 0 012.798 3.88c.114.39.045.59-.045.694-.104.12-.336.232-.777.232h-3.423a1.364 1.364 0 01-.67-.157 2.94 2.94 0 01-.681-.546c-.215-.215-.447-.474-.732-.79l-.221-.247h-.002z" fill="#FFF9F4"/></svg>