<svg width="36" height="36" fill="none" xmlns="http://www.w3.org/2000/svg"><path d="M33.75 17.902c0-.077 0-.165-.004-.267-.003-.285-.01-.605-.017-.946a52.85 52.85 0 00-.155-2.88c-.105-1.268-.26-2.327-.47-3.121a4.905 4.905 0 00-3.457-3.463c-.995-.267-2.942-.432-5.684-.534-1.305-.05-2.7-.081-4.096-.099-.489-.007-.942-.01-1.35-.014h-1.034c-.408.004-.861.007-1.35.014-1.395.018-2.791.05-4.095.099-2.743.105-4.694.27-5.685.534a4.899 4.899 0 00-3.456 3.463c-.215.794-.366 1.853-.471 3.122a52.941 52.941 0 00-.155 2.88c-.01.34-.014.66-.017.945 0 .102-.004.19-.004.267v.197c0 .077 0 .165.004.267.003.285.01.605.017.946.028.98.077 1.958.155 2.879.105 1.27.26 2.327.47 3.122a4.899 4.899 0 003.457 3.463c.991.267 2.942.432 5.684.534 1.305.05 2.7.081 4.096.099.489.007.942.01 1.35.014h1.034c.408-.004.861-.007 1.35-.014 1.395-.018 2.791-.05 4.095-.099 2.743-.105 4.694-.27 5.685-.534a4.893 4.893 0 003.456-3.463c.215-.795.366-1.853.471-3.122a52.85 52.85 0 00.155-2.88c.01-.34.014-.66.017-.945 0-.102.004-.19.004-.267v-.197zm-2.531.183c0 .074 0 .154-.004.25-.003.274-.01.576-.017.903-.025.935-.074 1.87-.148 2.739-.095 1.132-.229 2.06-.394 2.682a2.365 2.365 0 01-1.666 1.67c-.738.197-2.598.355-5.126.45a159.448 159.448 0 01-5.361.109h-1.006l-1.329-.01c-1.374-.018-2.749-.05-4.032-.1-2.528-.098-4.391-.252-5.126-.45a2.372 2.372 0 01-1.666-1.669c-.165-.622-.3-1.55-.394-2.682a50.932 50.932 0 01-.148-2.74 45.5 45.5 0 01-.017-.903c0-.095-.004-.179-.004-.25v-.168c0-.074 0-.155.004-.25.003-.274.01-.576.017-.903.025-.935.074-1.87.148-2.739.095-1.132.229-2.06.394-2.682a2.365 2.365 0 011.666-1.67c.738-.197 2.598-.355 5.126-.45a159.762 159.762 0 015.361-.11h1.006l1.329.011c1.374.018 2.749.05 4.032.099 2.528.098 4.391.253 5.126.45a2.371 2.371 0 011.666 1.67c.166.622.3 1.55.394 2.682a50.667 50.667 0 01.165 3.642c0 .095.004.18.004.25v.169zM14.87 22.71l8.156-4.746-8.156-4.675v9.421z" fill="#FFF9F4"/></svg>